inDegrees=no
num_controls=7
num_derivatives=13
num_iterations=127
num_multipliers=7
num_parameters=0
num_slacks=7
num_states=26
objective=0.469794
objective_accelerations=0.062728
objective_balance=0.002040
objective_effort=0.020091
objective_height=0.375407
objective_ligament=0.009528
solver_duration=1756.145957
status=Solve_Succeeded
success=true
DataType=double
version=3
OpenSimVersion=4.5
endheader
time	/jointset/ground_pelvis/pelvis_tilt/value	/jointset/ground_pelvis/pelvis_tx/value	/jointset/ground_pelvis/pelvis_ty/value	/jointset/hip_l/hip_flexion_l/value	/jointset/hip_l/hip_adduction_l/value	/jointset/hip_l/hip_rotation_l/value	/jointset/back/lumbar_extension/value	/jointset/patellofemoral_l/patellar_flexion_l/value	/jointset/knee_l/knee_flexion_l/value	/jointset/knee_l/knee_adduction_l/value	/jointset/knee_l/knee_rotation_l/value	/jointset/ankle_l/ankle_angle_l/value	/jointset/subtalar_l/subtalar_angle_l/value	/jointset/ground_pelvis/pelvis_tilt/speed	/jointset/ground_pelvis/pelvis_tx/speed	/jointset/ground_pelvis/pelvis_ty/speed	/jointset/hip_l/hip_flexion_l/speed	/jointset/hip_l/hip_adduction_l/speed	/jointset/hip_l/hip_rotation_l/speed	/jointset/back/lumbar_extension/speed	/jointset/patellofemoral_l/patellar_flexion_l/speed	/jointset/knee_l/knee_flexion_l/speed	/jointset/knee_l/knee_adduction_l/speed	/jointset/knee_l/knee_rotation_l/speed	/jointset/ankle_l/ankle_angle_l/speed	/jointset/subtalar_l/subtalar_angle_l/speed	/forceset/tau_hip_flexion_l	/forceset/tau_hip_adduction_l	/forceset/tau_hip_rotation_l	/forceset/tau_knee_flexion_l	/forceset/tau_ankle_angle_l	/forceset/tau_subtalar_angle_l	/forceset/tau_lumbar_extension	lambda_cid13_p0	lambda_cid13_p1	lambda_cid13_p2	lambda_cid13_p3	lambda_cid13_p4	lambda_cid13_p5	lambda_cid14_p0	/jointset/ground_pelvis/pelvis_tilt/accel	/jointset/ground_pelvis/pelvis_tx/accel	/jointset/ground_pelvis/pelvis_ty/accel	/jointset/hip_l/hip_flexion_l/accel	/jointset/hip_l/hip_adduction_l/accel	/jointset/hip_l/hip_rotation_l/accel	/jointset/back/lumbar_extension/accel	/jointset/patellofemoral_l/patellar_flexion_l/accel	/jointset/knee_l/knee_flexion_l/accel	/jointset/knee_l/knee_adduction_l/accel	/jointset/knee_l/knee_rotation_l/accel	/jointset/ankle_l/ankle_angle_l/accel	/jointset/subtalar_l/subtalar_angle_l/accel	gamma_cid13_p0	gamma_cid13_p1	gamma_cid13_p2	gamma_cid13_p3	gamma_cid13_p4	gamma_cid13_p5	gamma_cid14_p0
0	0.05072932872833699	0.1065322933662344	0.9041094970585416	0.1266922784136757	-0.3595733338022544	-0.2407987205881058	-0.2144969558742783	0.2051545070141899	0.2051545070141877	-0.152379680187691	-0.1703159114735263	0.09024313228550125	0.0905805310275279	0	0	0	0	0	0	0	0	0	0	0	0	0	0.1139285514129546	-0.04958298437987208	-0.006140683419704222	-0.2097156583566373	0.09003943303401436	-0.06232300534467265	-0.05293227668682764	-2.263484417571838	25.80448268858365	-2.500295387850197	20.85046877762492	-450.5868158866219	-61.35633782486966	-26.4349493106576	-6.107274062935428	-2.54660495670914	-0.8670781754074576	14.42503058207894	0.03123230151512785	2.373026122604918	-3.924077321615889	7.237059395985452	7.237059395986584	1.903517510761778	-0.5029473338325383	-0.4082019502257602	-0.1220997855195292	2.035472635956767e-08	1.538350244348811e-07	-6.237942366571586e-08	-2.018551467931015e-10	1.219757842693653e-07	8.958996299515268e-08	2.428528178670356e-08
0.01	0.05043321053351794	0.1064070831461306	0.9040673751869902	0.127394987298925	-0.359571276161735	-0.2406758471917378	-0.2146972988775837	0.2055060135981338	0.2055060135981769	-0.152286592952347	-0.1703329259952585	0.09022189779470785	0.09057465732694049	-0.05901700333873401	-0.02486553551591199	-0.008399412326346858	0.1398531599725264	0.000397505764718344	0.02458470361346728	-0.03975255698216393	0.06990505511727124	0.06990505511728222	0.01847273203402302	-0.003238051573064526	-0.004185748038333941	-0.001171136429332992	0.1126761748902178	-0.05921856554602701	-0.006073260625506246	-0.210733663241244	0.0909174730099598	-0.05385333017825842	-0.05147650331752317	-1.422663554002866	21.96823455785596	-1.876530804231685	18.95792991648409	-450.8471910182552	-69.39896700845412	-26.43475304605064	-5.767919364903831	-2.430051613586606	-0.8226040685008082	13.66216652019395	0.04188897320282935	2.502710606353463	-3.953438334844312	6.807784460164582	6.807784460165125	1.797463738713971	-0.2095201596356094	-0.4145825482140277	-0.1140971851660164	1.071617489534859e-08	2.589661755636897e-07	-3.419583295198202e-08	1.798305081924604e-08	-6.662053529499281e-08	6.36300701898806e-08	4.153723697237549e-08
0.02	0.04955312112621853	0.1060385128179562	0.903942012930724	0.1294755693470053	-0.3595656676117341	-0.24030682313413	-0.2152856861403685	0.206544681911475	0.2065446819114735	-0.1520131158589378	-0.1703773782506544	0.09016064156001022	0.09055717693935449	-0.116794242499989	-0.04867202161412171	-0.01664807694299853	0.2755746325591552	0.0007101818995318896	0.0492301322523823	-0.07760885189743527	0.1374323458572102	0.1374323458572231	0.03607797162771142	-0.005487546769827294	-0.008004348779730511	-0.002321337399694018	0.1114237983678501	-0.06885414671211333	-0.006005837832272612	-0.2117516681254758	0.09179551298602663	-0.04538365501172002	-0.05002072994800061	-0.5496907968811306	18.13177489887736	-1.258922720035775	17.14746424116533	-450.4576758196795	-77.31110970987903	-26.43386597280011	-5.859321227439617	-2.334795073168655	-0.8369286334684222	13.5986931048994	0.01426637553416859	2.38517112769446	-3.544824908237373	6.761506520519005	6.761506520518322	1.730019022694858	-0.305236058572184	-0.3347724908382443	-0.1179126937251224	1.07762343112951e-09	3.640973266924984e-07	-6.012242238248179e-09	3.616795678528518e-08	-2.552168548593509e-07	3.767017738460852e-08	5.87891921580474e-08
0.03	0.04810127435486803	0.1054362324248778	0.9037346014626273	0.132894740916871	-0.3595573517252072	-0.2396934163704137	-0.2162429137705491	0.2082480919222926	0.2082480919222743	-0.1515675814916128	-0.1704421127890132	0.09006225176328986	0.0905280910651667	-0.1733268047963556	-0.07169879482488681	-0.02483250997895865	0.4076815997034119	0.0009392401379107601	0.0733155645118959	-0.1135578038005554	0.2029381846202788	0.202938184620278	0.05289990002086796	-0.007462729054979352	-0.01170005613136477	-0.003517274518178428	0.1072730358020121	-0.06462030620716754	-0.005366007245679001	-0.2076051638303009	0.08831768465263222	-0.04716131083276198	-0.04685555369481618	-1.70878372520159	18.99150444589615	-1.264337511806143	17.49643337521124	-449.6725758340868	-74.69367025197967	-26.43194675365577	-5.512971824335	-2.273821811517818	-0.8089964394168464	12.92998808479507	0.02510504255880594	2.399893099936979	-3.578099780701267	6.398389974578855	6.398389974576961	1.638993070722706	-0.1441744001662727	-0.3909221754448152	-0.1237068024127262	-1.63020876022892e-09	3.851291881623993e-07	4.663417576969241e-09	4.03434877282948e-08	-3.474351697563925e-07	1.839620781230548e-08	6.464857925587601e-08
0.04	0.04609155234186348	0.1046062436263939	0.903445386504018	0.1376176400713136	-0.3595471693573873	-0.2388432225191314	-0.2175512648096273	0.2105972138047632	0.2105972138047591	-0.1509576851757356	-0.1705267021676376	0.08992611442943069	0.09048639130349341	-0.2283692908367405	-0.0942137026952324	-0.03300877504550823	0.5363201494718702	0.001083478159057505	0.0965875497656937	-0.1478335336777535	0.2665747201984668	0.2665747201984557	0.0689503613378914	-0.009458514807310307	-0.01555385620774259	-0.004844114896764885	0.103122273236042	-0.0603864657022029	-0.004726176658682336	-0.20345865953528	0.08483985631920408	-0.04893896665379919	-0.04369037744168412	-2.838921020365048	19.85126226248727	-1.275581196339593	17.9198143113792	-448.3036721066471	-71.95522357686797	-26.42868950309866	-5.561305976243188	-2.232422005084776	-0.835295039586315	12.90500962973972	-0.002697667912247769	2.222481726551299	-3.210180503052941	6.387645883542898	6.387645883542889	1.57572560746824	-0.3093567520079614	-0.3663910357869736	-0.1440933457455373	-4.195139523280941e-09	4.044270436599516e-07	1.497808912623786e-08	4.423016557804607e-08	-4.376663092994687e-07	-7.399076727198587e-10	7.027306804261505e-08
0.05	0.04353816297423431	0.1035538303243774	0.9030742012104752	0.1436104341656978	-0.3595358924110755	-0.2377646864526483	-0.219193562120378	0.2135738730049188	0.2135738730049299	-0.1501909583081707	-0.1706316948934951	0.08975102210885294	0.09043097169877852	-0.2820577920185173	-0.1161635449330052	-0.04124189312434298	0.6616275235320613	0.001164811914384237	0.1190232773228565	-0.1803752298900464	0.3284294098948106	0.3284294098948076	0.08426130581865597	-0.01148764062653621	-0.01947043081838733	-0.006248043381550455	0.09908937417807254	-0.05987167738824164	-0.004113079210942099	-0.2006162802923771	0.0826751562629747	-0.0477047732743103	-0.04065507232582494	-3.344676004572019	19.32752577190854	-1.104952392976544	17.62842995580927	-446.8216389459305	-72.16972383267613	-26.42380075577127	-5.234994355082104	-2.160444539646691	-0.8194498736249894	12.25193203053233	0.01241798646767485	2.239670869742107	-3.238559393017313	6.035209921622347	6.035209921623338	1.488796339458211	-0.1418395573310678	-0.4051469612569163	-0.1398437523610865	-6.571166646313379e-09	3.840225794407472e-07	1.631433535058602e-08	4.53988680639303e-08	-4.93682589450042e-07	-1.924371976967589e-08	7.071839598553356e-08
